<?xml version="1.0" encoding="UTF-8"?><svg id="Ebene_1" xmlns="http://www.w3.org/2000/svg" viewBox="0 0 21 21.09"><path d="M20.92,9.81h-6.78c-.16-1.05-.92-2.03-1.84-2.53-2.21-1.21-5,.07-5.46,2.53H.06c.1-1.68.64-3.34,1.52-4.77C4.06,1.04,8.87-.83,13.43.48c4.15,1.2,7.24,4.99,7.5,9.32Z"/><path d="M6.84,11.3c.16,1.05.92,2.03,1.84,2.53,2.22,1.21,4.99-.07,5.46-2.53h6.78c-.23,3.94-2.83,7.48-6.46,8.96-4.77,1.94-10.2.15-12.88-4.19C.7,14.64.16,12.99.06,11.3h6.78Z"/><path d="M10.2,8.32c2.74-.33,3.54,3.63.92,4.39-3.11.9-4.03-4.01-.92-4.39Z"/></svg>